<?xml version="1.0" standalone="no"?><!DOCTYPE svg PUBLIC "-//W3C//DTD SVG 1.1//EN" "http://www.w3.org/Graphics/SVG/1.1/DTD/svg11.dtd"><svg t="1509335121618" class="icon" style="" viewBox="0 0 1024 1024" version="1.1" xmlns="http://www.w3.org/2000/svg" p-id="2003" xmlns:xlink="http://www.w3.org/1999/xlink" width="128" height="128"><defs><style type="text/css"></style></defs><path d="M391.7 770.9L253.1 632.3l-44.7 18.5 164.8 164.8zM236.2 219.1l100-100-18.6-44.7-113 113.1zM187.5 204.6l-113.1 113 44.7 18.6 100-100zM724.6 282.3l-73.8-73.9-18.5 44.7 60.7 60.8zM710.1 331l60.8 60.7 44.7-18.5-73.9-73.8zM824.8 499.9V395.5L780.1 414v85.9zM780.1 524.1V610l44.7 18.5V524.1zM958.9 499.9V340l-44.7 18.5v141.4zM914.2 524.1v141.4l44.7 18.5V524.1zM741.7 724.6l73.9-73.8-44.7-18.5-60.8 60.7zM693 710.1l-60.7 60.8 18.5 44.7 73.8-73.9zM740.4 757.5l-80.3 80.4 18.5 44.7 93.4-93.5zM789.1 772l93.5-93.4-44.7-18.5-80.4 80.3zM176.8 499.9V386.3l-44.6-18.5v132.1zM132.2 524.1v132.1l44.6-18.5V524.1zM524.1 824.8h104.4L610 780.1h-85.9zM499.9 780.1H414l-18.5 44.7h104.4zM524.1 891.8h132.1l-18.5-44.6H524.1zM499.9 847.2H386.3l-18.5 44.6h132.1zM524.1 958.9H684l-18.5-44.7H524.1zM499.9 914.2H358.5L340 958.9h159.9zM252 789.1l93.4 93.5 18.5-44.7-80.3-80.4zM266.5 740.4l-80.4-80.3-44.7 18.5 93.5 93.4zM204.6 836.5l113 113.1 18.6-44.7-100-100zM219.1 787.8l-100-100-44.7 18.6 113.1 113zM414 243.9h196l18.5-44.7h-233zM253.1 391.7l138.6-138.6-18.5-44.7-164.8 164.8zM243.9 610V414l-44.7-18.5v233zM186.1 363.9l177.8-177.8-18.5-44.7-204 204zM678.6 141.4l-18.5 44.7 177.8 177.8 44.7-18.5zM386.3 176.8h251.4l18.5-44.6H367.8zM847.2 386.3v251.4l44.6 18.5V367.8zM109.8 665.5v-307L65.1 340v344zM706.4 74.4l-18.6 44.7 217.1 217.1 44.7-18.6zM358.5 109.8h307L684 65.1H340zM904.9 687.8L687.8 904.9l18.6 44.7 243.2-243.2zM512 292.7c-121.1 0-219.3 98.2-219.3 219.3S390.9 731.3 512 731.3 731.3 633.1 731.3 512 633.1 292.7 512 292.7z m1.3 417.3c-111 0-193.2-90.7-198-198-4.8-106.9 94.4-198 198-198 111 0 193.2 90.7 198 198 4.8 106.9-94.5 198-198 198z" fill="#2c2c2c" p-id="2004"></path><path d="M713.4 517.2c-2.8 108.9-91.8 196.4-201.4 196.4-109.6 0-198.7-87.5-201.4-196.4-0.1-1.7-0.1-3.4-0.1-5.2 0-55.7 45.1-100.8 100.8-100.8S512 456.3 512 512c0 55.7 45.1 100.8 100.8 100.8 53.9 0 97.9-42.4 100.6-95.6z m-302.2-37.4c-17.8 0-32.2 14.4-32.2 32.2s14.4 32.2 32.2 32.2c17.8 0 32.2-14.4 32.2-32.2s-14.4-32.2-32.2-32.2z" fill="#2c2c2c" p-id="2005"></path><path d="M612.8 512m-32.2 0a32.2 32.2 0 1 0 64.4 0 32.2 32.2 0 1 0-64.4 0Z" fill="#2c2c2c" p-id="2006"></path></svg>